<svg width="152" height="152" viewBox="0 0 152 152" fill="none" xmlns="http://www.w3.org/2000/svg">
<rect width="152" height="152" fill="#041827"/>
<path d="M92.2514 45.001C95.1809 45.001 97.6559 46.8887 98.5874 49.5009H121.915C122.847 46.8887 125.322 45.001 128.251 45.001C131.973 45.001 135.001 48.0294 135.001 51.7509C135.001 55.4723 131.973 58.5008 128.251 58.5008C125.322 58.5008 122.847 56.6131 121.915 54.0008H98.5851C97.6536 56.6131 95.1786 58.5008 92.2491 58.5008C88.5276 58.5008 85.4991 55.4723 85.4991 51.7509C85.4991 48.0294 88.5299 45.001 92.2514 45.001ZM128.251 54.0008C129.491 54.0008 130.501 52.9929 130.501 51.7509C130.501 50.5089 129.491 49.5009 128.251 49.5009C127.012 49.5009 126.001 50.5089 126.001 51.7509C126.001 52.9929 127.012 54.0008 128.251 54.0008ZM92.2514 54.0008C93.4911 54.0008 94.5014 52.9929 94.5014 51.7509C94.5014 50.5089 93.4911 49.5009 92.2514 49.5009C91.0116 49.5009 90.0014 50.5089 90.0014 51.7509C90.0014 52.9929 91.0116 54.0008 92.2514 54.0008Z" fill="#00B2FF"/>
<path d="M74.2524 58.915V45.0012C74.2524 44.4027 74.4886 43.8313 74.9116 43.4105L83.9116 34.4106C84.3324 33.9876 84.9061 33.7514 85.5024 33.7514H92.6664C93.5979 31.1392 96.0729 29.2515 99.0024 29.2515C102.724 29.2515 105.752 32.2799 105.752 36.0014C105.752 39.7228 102.724 42.7513 99.0024 42.7513C96.0729 42.7513 93.5979 40.8635 92.6664 38.2513H86.4339L78.7524 45.9327V58.915C81.3646 59.8465 83.2524 62.3215 83.2524 65.2509C83.2524 68.9724 80.2239 72.0008 76.5024 72.0008C72.7809 72.0008 69.7524 68.9724 69.7524 65.2509C69.7524 62.3215 71.6401 59.8465 74.2524 58.915ZM99.0024 38.2513C100.242 38.2513 101.252 37.2433 101.252 36.0014C101.252 34.7594 100.242 33.7514 99.0024 33.7514C97.7627 33.7514 96.7524 34.7594 96.7524 36.0014C96.7524 37.2433 97.7627 38.2513 99.0024 38.2513ZM76.5024 67.5009C77.7421 67.5009 78.7524 66.4929 78.7524 65.2509C78.7524 64.009 77.7421 63.001 76.5024 63.001C75.2626 63.001 74.2524 64.009 74.2524 65.2509C74.2524 66.4929 75.2626 67.5009 76.5024 67.5009Z" fill="#00B2FF"/>
<path d="M33.7509 67.4992C34.7904 67.4992 35.7624 67.7534 36.6421 68.1764L40.5009 64.3177V42.7495C40.5009 42.151 40.7372 41.5795 41.1602 41.1588L63.6782 18.6411C63.2552 17.7614 63.0009 16.7894 63.0009 15.7499C63.0009 12.0285 66.0295 9 69.751 9C73.4725 9 76.501 12.0285 76.501 15.7499C76.501 19.4713 73.4725 22.4998 69.751 22.4998C68.7115 22.4998 67.7395 22.2456 66.8597 21.8226L45.0009 43.681V65.2492C45.0009 65.8477 44.7647 66.4192 44.3417 66.8399L39.8237 71.3578C40.2467 72.2376 40.5009 73.2096 40.5009 74.2491C40.5009 77.9705 37.4724 80.999 33.7509 80.999C30.0294 80.999 27.0009 77.9705 27.0009 74.2491C27.0009 70.5276 30.0294 67.4992 33.7509 67.4992ZM69.751 17.9999C70.9907 17.9999 72.001 16.9919 72.001 15.7499C72.001 14.5079 70.9907 13.4999 69.751 13.4999C68.5112 13.4999 67.501 14.5079 67.501 15.7499C67.501 16.9919 68.5112 17.9999 69.751 17.9999ZM33.7509 76.499C34.9906 76.499 36.0009 75.491 36.0009 74.2491C36.0009 73.0071 34.9906 71.9991 33.7509 71.9991C32.5111 71.9991 31.5009 73.0071 31.5009 74.2491C31.5009 75.491 32.5111 76.499 33.7509 76.499Z" fill="#00B2FF"/>
<path d="M13.4999 40.9135V31.4997C13.4999 30.9012 13.7362 30.3297 14.1592 29.9089L29.9092 14.1592C30.3299 13.7362 30.9037 13.4999 31.5 13.4999H43.164C44.0955 10.8877 46.5705 9 49.5 9C53.2215 9 56.25 12.0285 56.25 15.7499C56.25 19.4713 53.2215 22.4998 49.5 22.4998C46.5705 22.4998 44.0955 20.6121 43.164 17.9999H32.4315L17.9999 32.4312V40.9135C20.6122 41.845 22.4999 44.32 22.4999 47.2494C22.4999 50.9709 19.4714 53.9993 15.7499 53.9993C12.0284 53.9993 8.9999 50.9709 8.9999 47.2494C8.9999 44.32 10.8877 41.845 13.4999 40.9135ZM49.5 17.9999C50.7397 17.9999 51.75 16.9919 51.75 15.7499C51.75 14.5079 50.7397 13.4999 49.5 13.4999C48.2602 13.4999 47.25 14.5079 47.25 15.7499C47.25 16.9919 48.2602 17.9999 49.5 17.9999ZM15.7499 49.4994C16.9897 49.4994 17.9999 48.4914 17.9999 47.2494C17.9999 46.0075 16.9897 44.9995 15.7499 44.9995C14.5102 44.9995 13.4999 46.0075 13.4999 47.2494C13.4999 48.4914 14.5102 49.4994 15.7499 49.4994Z" fill="#00B2FF"/>
<path d="M44.9966 130.912V98.5827C42.3866 97.6512 40.4989 95.1762 40.4989 92.2468C40.4989 88.5253 43.5274 85.4969 47.2489 85.4969C50.1784 85.4969 52.6534 87.3846 53.5849 89.9968H76.9129C77.8444 87.3846 80.3194 85.4969 83.2489 85.4969C86.1785 85.4969 88.6535 87.3846 89.585 89.9968H102.567L110.926 81.6382C110.503 80.7584 110.249 79.7865 110.249 78.747C110.249 75.0255 113.278 71.9971 116.999 71.9971C120.721 71.9971 123.749 75.0255 123.749 78.747C123.749 82.4684 120.721 85.4969 116.999 85.4969C115.96 85.4969 114.988 85.2426 114.108 84.8196L105.09 93.8375C104.669 94.2605 104.095 94.4967 103.499 94.4967H89.585C88.6535 97.109 86.1785 98.9967 83.2489 98.9967C80.3194 98.9967 77.8444 97.109 76.9129 94.4967H53.5826C52.9031 96.4025 51.4024 97.9032 49.4966 98.5827V130.912C52.1089 131.844 53.9966 134.319 53.9966 137.248C53.9966 140.97 50.9681 143.998 47.2466 143.998C43.5251 143.998 40.4966 140.97 40.4966 137.248C40.4966 134.319 42.3844 131.844 44.9966 130.912ZM116.999 80.9969C118.239 80.9969 119.249 79.989 119.249 78.747C119.249 77.505 118.239 76.497 116.999 76.497C115.759 76.497 114.749 77.505 114.749 78.747C114.749 79.989 115.759 80.9969 116.999 80.9969ZM83.2489 94.4967C84.4887 94.4967 85.499 93.4888 85.499 92.2468C85.499 91.0048 84.4887 89.9968 83.2489 89.9968C82.0092 89.9968 80.9989 91.0048 80.9989 92.2468C80.9989 93.4888 82.0092 94.4967 83.2489 94.4967ZM47.2489 139.496C48.4886 139.496 49.4989 138.488 49.4989 137.246C49.4989 136.004 48.4886 134.996 47.2489 134.996C46.0091 134.996 44.9989 136.004 44.9989 137.246C44.9989 138.488 46.0091 139.496 47.2489 139.496ZM47.2489 94.4967C48.4886 94.4967 49.4989 93.4888 49.4989 92.2468C49.4989 91.0048 48.4886 89.9968 47.2489 89.9968C46.0091 89.9968 44.9989 91.0048 44.9989 92.2468C44.9989 93.4888 46.0091 94.4967 47.2489 94.4967Z" fill="#00B2FF"/>
<path d="M56.2489 54.4133V47.2494C56.2489 46.6509 56.4851 46.0795 56.9081 45.6587L83.9262 18.6411C83.5032 17.7614 83.2489 16.7894 83.2489 15.7499C83.2489 12.0285 86.2774 9 89.9989 9C92.9285 9 95.4035 10.8877 96.335 13.4999H105.749C106.991 13.4999 107.999 14.5057 107.999 15.7499V21.5683L116.358 29.9269C117.238 29.5039 118.21 29.2497 119.249 29.2497C122.971 29.2497 125.999 32.2782 125.999 35.9996C125.999 39.7211 122.971 42.7495 119.249 42.7495C115.528 42.7495 112.499 39.7211 112.499 35.9996C112.499 34.9601 112.753 33.9881 113.176 33.1084L104.158 24.0905C103.735 23.6698 103.499 23.0983 103.499 22.4998V17.9999H96.335C95.4035 20.6121 92.9285 22.4998 89.9989 22.4998C88.9594 22.4998 87.9874 22.2456 87.1077 21.8226L60.7489 48.1809V54.4133C63.3611 55.3448 65.2489 57.8198 65.2489 60.7492C65.2489 64.4707 62.2204 67.4991 58.4989 67.4991C54.7774 67.4991 51.7489 64.4707 51.7489 60.7492C51.7489 57.8198 53.6366 55.3448 56.2489 54.4133ZM119.249 38.2496C120.489 38.2496 121.499 37.2416 121.499 35.9996C121.499 34.7576 120.489 33.7496 119.249 33.7496C118.009 33.7496 116.999 34.7576 116.999 35.9996C116.999 37.2416 118.009 38.2496 119.249 38.2496ZM89.9989 17.9999C91.2387 17.9999 92.249 16.9919 92.249 15.7499C92.249 14.5079 91.2387 13.4999 89.9989 13.4999C88.7592 13.4999 87.7489 14.5079 87.7489 15.7499C87.7489 16.9919 88.7592 17.9999 89.9989 17.9999ZM58.4989 62.9992C59.7386 62.9992 60.7489 61.9912 60.7489 60.7492C60.7489 59.5073 59.7386 58.4993 58.4989 58.4993C57.2591 58.4993 56.2489 59.5073 56.2489 60.7492C56.2489 61.9912 57.2591 62.9992 58.4989 62.9992Z" fill="#00B2FF"/>
<path d="M62.9998 71.9991C65.9293 71.9991 68.4043 73.8868 69.3358 76.499H95.8184L108.659 63.6584C109.08 63.2355 109.654 62.9992 110.25 62.9992H134.068L139.5 57.5678V39.1811L122.141 21.8226C121.261 22.2456 120.289 22.4998 119.25 22.4998C115.528 22.4998 112.5 19.4713 112.5 15.7499C112.5 12.0285 115.528 9 119.25 9C122.971 9 126 12.0285 126 15.7499C126 16.7894 125.746 17.7614 125.323 18.6411L143.341 36.6588C143.764 37.0796 144 37.6511 144 38.2496V58.4993C144 59.0978 143.764 59.6693 143.341 60.09L136.591 66.8399C136.17 67.2629 135.596 67.4991 135 67.4991H111.181L98.3406 80.3397C97.9199 80.7627 97.3461 80.9989 96.7499 80.9989H69.3358C68.4043 83.6112 65.9293 85.4989 62.9998 85.4989C59.2783 85.4989 56.2498 82.4704 56.2498 78.749C56.2498 75.0275 59.2783 71.9991 62.9998 71.9991ZM119.25 13.4999C118.01 13.4999 117 14.5079 117 15.7499C117 16.9919 118.01 17.9999 119.25 17.9999C120.49 17.9999 121.5 16.9919 121.5 15.7499C121.5 14.5079 120.49 13.4999 119.25 13.4999ZM62.9998 80.9989C64.2396 80.9989 65.2498 79.991 65.2498 78.749C65.2498 77.507 64.2396 76.499 62.9998 76.499C61.7601 76.499 60.7498 77.507 60.7498 78.749C60.7498 79.991 61.7601 80.9989 62.9998 80.9989Z" fill="#00B2FF"/>
<path d="M15.7504 63.001C16.7899 63.001 17.7619 63.2552 18.6417 63.6782L27.0005 55.3196V42.3373C24.3882 41.4058 22.5005 38.9308 22.5005 36.0014C22.5005 32.2799 25.529 29.2515 29.2505 29.2515C32.972 29.2515 36.0005 32.2799 36.0005 36.0014C36.0005 38.9308 34.1127 41.4058 31.5005 42.3373V56.2511C31.5005 56.8496 31.2642 57.4211 30.8412 57.8418L21.8232 66.8597C22.2462 67.7394 22.5005 68.7114 22.5005 69.7509C22.5005 72.6803 20.6127 75.1553 18.0004 76.0868V77.8193L35.3412 95.1597C35.7642 95.5805 36.0005 96.152 36.0005 96.7505V99.4144C38.6127 100.346 40.5005 102.821 40.5005 105.75C40.5005 108.68 38.6127 111.155 36.0005 112.086V117.416C38.6127 118.348 40.5005 120.823 40.5005 123.752C40.5005 127.474 37.472 130.502 33.7505 130.502C30.029 130.502 27.0005 127.474 27.0005 123.752C27.0005 120.823 28.8882 118.348 31.5005 117.416V112.086C28.8882 111.155 27.0005 108.68 27.0005 105.75C27.0005 102.821 28.8882 100.346 31.5005 99.4144V97.682L14.1597 80.3415C13.7367 79.9207 13.5004 79.3492 13.5004 78.7507V76.0868C10.8882 75.1553 9.00043 72.6803 9.00043 69.7509C9.00043 66.0294 12.0289 63.001 15.7504 63.001ZM29.2505 38.2513C30.4902 38.2513 31.5005 37.2433 31.5005 36.0014C31.5005 34.7594 30.4902 33.7514 29.2505 33.7514C28.0107 33.7514 27.0005 34.7594 27.0005 36.0014C27.0005 37.2433 28.0107 38.2513 29.2505 38.2513ZM33.7505 126C34.9902 126 36.0005 124.992 36.0005 123.75C36.0005 122.508 34.9902 121.5 33.7505 121.5C32.5107 121.5 31.5005 122.508 31.5005 123.75C31.5005 124.992 32.5107 126 33.7505 126ZM33.7505 108C34.9902 108 36.0005 106.992 36.0005 105.75C36.0005 104.508 34.9902 103.5 33.7505 103.5C32.5107 103.5 31.5005 104.508 31.5005 105.75C31.5005 106.992 32.5107 108 33.7505 108ZM15.7504 72.0008C16.9902 72.0008 18.0004 70.9929 18.0004 69.7509C18.0004 68.5089 16.9902 67.5009 15.7504 67.5009C14.5107 67.5009 13.5004 68.5089 13.5004 69.7509C13.5004 70.9929 14.5107 72.0008 15.7504 72.0008Z" fill="#00B2FF"/>
</svg>
